<svg xmlns="http://www.w3.org/2000/svg" xmlns:xlink="http://www.w3.org/1999/xlink" xmlns:s="https://github.com/nturley/netlistsvg" width="574.5" height="230"><style>svg {
  stroke:#000;
  fill:none;
}
text {
  fill:#000;
  stroke:none;
  font-size:10px;
  font-weight: bold;
  font-family: "Courier New", monospace;
}
line {
    stroke-linecap: round;
}
.nodelabel {
  text-anchor: middle;
}
.inputPortLabel {
  text-anchor: end;
}
.splitjoinBody {
  fill:#000;
}</style><g s:type="dff" transform="translate(411.5,46)" s:width="30" s:height="40" id="cell_\11"><s:alias val="$dff"/><s:alias val="$_DFF_"/><s:alias val="$_DFF_P_"/><s:alias val="dff-bus"/><s:alias val="$dff-bus"/><s:alias val="$_DFF_-bus"/><s:alias val="$_DFF_P_-bus"/><rect width="30" height="40" x="0" y="0" fill="#ffef8b" class="cell_\11"/><path d="M0,35 L5,30 L0,25" class="cell_\11"/><g s:x="31" s:y="10" s:pid="Q"/><g s:x="-1" s:y="30" s:pid="CLK"/><g s:x="-1" s:y="30" s:pid="C"/><g s:x="-1" s:y="10" s:pid="D"/></g><g s:type="add" transform="translate(516.5,51)" s:width="25" s:height="25" id="cell_\5"><s:alias val="$add"/><circle r="12.5" cx="12.5" cy="12.5" fill="#ffc9c3" class="cell_\5"/><line x1="7.5" x2="17.5" y1="12.5" y2="12.5" class="cell_\5"/><line x1="12.5" x2="12.5" y1="7.5" y2="17.5" class="cell_\5"/><g s:x="2" s:y="5" s:pid="A"/><g s:x="2" s:y="20" s:pid="B"/><g s:x="26" s:y="12.5" s:pid="Y"/></g><g s:type="mux-bus" transform="translate(158.33333333333334,26)" s:width="24" s:height="40" id="cell_\6"><s:alias val="$pmux-bus"/><s:alias val="$mux-bus"/><s:alias val="$_MUX_-bus"/><path d="M8,2 L8,0 L24,8 L24,32 L8,40 L8,38" fill="#ffffff" class="cell_\6"/><path d="M4,2 L4,0 L22,9 L22,31 L4,40 L4,38" fill="#ffffff" class="cell_\6"/><path d="M0,0 L20,10 L20,30 L0,40 Z" fill="#ffffff" class="cell_\6"/><text x="5" y="32" class="nodelabel cell_\6" s:attribute="">1</text><text x="5" y="13" class="nodelabel cell_\6" s:attribute="">0</text><g s:x="-1" s:y="10" s:pid="A"/><g s:x="-1" s:y="30" s:pid="B"/><g s:x="12" s:y="38" s:pid="S"/><g s:x="24.5" s:y="20" s:pid="Y"/></g><g s:type="mux-bus" transform="translate(286,36)" s:width="24" s:height="40" id="cell_\8"><s:alias val="$pmux-bus"/><s:alias val="$mux-bus"/><s:alias val="$_MUX_-bus"/><path d="M8,2 L8,0 L24,8 L24,32 L8,40 L8,38" fill="#ffffff" class="cell_\8"/><path d="M4,2 L4,0 L22,9 L22,31 L4,40 L4,38" fill="#ffffff" class="cell_\8"/><path d="M0,0 L20,10 L20,30 L0,40 Z" fill="#ffffff" class="cell_\8"/><text x="5" y="32" class="nodelabel cell_\8" s:attribute="">1</text><text x="5" y="13" class="nodelabel cell_\8" s:attribute="">0</text><g s:x="-1" s:y="10" s:pid="A"/><g s:x="-1" s:y="30" s:pid="B"/><g s:x="12" s:y="38" s:pid="S"/><g s:x="24.5" s:y="20" s:pid="Y"/></g><g s:type="inputExt" transform="translate(345.5,107)" s:width="30" s:height="20" id="cell_i_clk"><text x="15" y="-4" class="nodelabel cell_i_clk" s:attribute="ref">i_clk</text><s:alias val="$_inputExt_"/><path d="M0,0 L0,20 L15,20 L30,10 L15,0 Z" fill="#8bcaff" class="cell_i_clk"/><g s:x="30" s:y="10" s:pid="Y"/></g><g s:type="inputExt" transform="translate(220,198)" s:width="30" s:height="20" id="cell_i_clr"><text x="15" y="-4" class="nodelabel cell_i_clr" s:attribute="ref">i_clr</text><s:alias val="$_inputExt_"/><path d="M0,0 L0,20 L15,20 L30,10 L15,0 Z" fill="#8bcaff" class="cell_i_clr"/><g s:x="30" s:y="10" s:pid="Y"/></g><g s:type="inputExt" transform="translate(83,107)" s:width="30" s:height="20" id="cell_i_load"><text x="15" y="-4" class="nodelabel cell_i_load" s:attribute="ref">i_load</text><s:alias val="$_inputExt_"/><path d="M0,0 L0,20 L15,20 L30,10 L15,0 Z" fill="#8bcaff" class="cell_i_load"/><g s:x="30" s:y="10" s:pid="Y"/></g><g s:type="inputExt" transform="translate(12,46)" s:width="30" s:height="20" id="cell_iv_cnt"><text x="15" y="-4" class="nodelabel cell_iv_cnt" s:attribute="ref">iv_cnt</text><s:alias val="$_inputExt_"/><path d="M0,0 L0,20 L15,20 L30,10 L15,0 Z" fill="#8bcaff" class="cell_iv_cnt"/><g s:x="30" s:y="10" s:pid="Y"/></g><g s:type="outputExt" transform="translate(516.5,121)" s:width="30" s:height="20" id="cell_ov_cnt"><text x="15" y="-4" class="nodelabel cell_ov_cnt" s:attribute="ref">ov_cnt</text><s:alias val="$_outputExt_"/><path d="M30,0 L30,20 L15,20 L0,10 L15,0 Z" fill="#169300" class="cell_ov_cnt"/><g s:x="0" s:y="10" s:pid="A"/></g><g s:type="constant" transform="translate(411.5,141)" s:width="30" s:height="20" id="cell_0000000000000001"><text x="15" y="-4" class="nodelabel cell_0000000000000001" s:attribute="ref">0x1</text><s:alias val="$_constant_"/><rect width="30" height="20" fill="#745bff" class="cell_0000000000000001"/><g s:x="31" s:y="10" s:pid="Y"/></g><g s:type="constant" transform="translate(154,137)" s:width="30" s:height="20" id="cell_0000000000000000"><text x="15" y="-4" class="nodelabel cell_0000000000000000" s:attribute="ref">0x0</text><s:alias val="$_constant_"/><rect width="30" height="20" fill="#745bff" class="cell_0000000000000000"/><g s:x="31" s:y="10" s:pid="Y"/></g><line x1="375.5" x2="385.5" y1="117" y2="117" class="net_2 width_1" style="stroke-width: 1"/><line x1="385.5" x2="385.5" y1="117" y2="76" class="net_2 width_1" style="stroke-width: 1"/><line x1="385.5" x2="410.5" y1="76" y2="76" class="net_2 width_1" style="stroke-width: 1"/><line x1="310.5" x2="410.5" y1="56" y2="56" class="net_37,38,39,40,41,42,43,44,45,46,47,48,49,50,51,52 width_16" style="stroke-width: 2"/><line x1="442.5" x2="518.5" y1="56" y2="56" class="net_21,22,23,24,25,26,27,28,29,30,31,32,33,34,35,36 width_16" style="stroke-width: 2"/><line x1="442.5" x2="452.5" y1="56" y2="56" class="net_21,22,23,24,25,26,27,28,29,30,31,32,33,34,35,36 width_16" style="stroke-width: 2"/><line x1="452.5" x2="452.5" y1="56" y2="131" class="net_21,22,23,24,25,26,27,28,29,30,31,32,33,34,35,36 width_16" style="stroke-width: 2"/><circle cx="452.5" cy="56" r="3" style="fill:#000" class="net_21,22,23,24,25,26,27,28,29,30,31,32,33,34,35,36 width_16"/><line x1="452.5" x2="516.5" y1="131" y2="131" class="net_21,22,23,24,25,26,27,28,29,30,31,32,33,34,35,36 width_16" style="stroke-width: 2"/><line x1="442.5" x2="491.5" y1="151" y2="151" class="net_85,86,87,88,89,90,91,92,93,94,95,96,97,98,99,100 width_16" style="stroke-width: 2"/><line x1="491.5" x2="491.5" y1="151" y2="71" class="net_85,86,87,88,89,90,91,92,93,94,95,96,97,98,99,100 width_16" style="stroke-width: 2"/><line x1="491.5" x2="518.5" y1="71" y2="71" class="net_85,86,87,88,89,90,91,92,93,94,95,96,97,98,99,100 width_16" style="stroke-width: 2"/><line x1="542.5" x2="562.5" y1="63.5" y2="63.5" class="net_53,54,55,56,57,58,59,60,61,62,63,64,65,66,67,68 width_16" style="stroke-width: 2"/><line x1="562.5" x2="562.5" y1="63.5" y2="16" class="net_53,54,55,56,57,58,59,60,61,62,63,64,65,66,67,68 width_16" style="stroke-width: 2"/><line x1="562.5" x2="129" y1="16" y2="16" class="net_53,54,55,56,57,58,59,60,61,62,63,64,65,66,67,68 width_16" style="stroke-width: 2"/><line x1="129" x2="129" y1="16" y2="36" class="net_53,54,55,56,57,58,59,60,61,62,63,64,65,66,67,68 width_16" style="stroke-width: 2"/><line x1="129" x2="157.33333333333334" y1="36" y2="36" class="net_53,54,55,56,57,58,59,60,61,62,63,64,65,66,67,68 width_16" style="stroke-width: 2"/><line x1="42" x2="157.33333333333334" y1="56" y2="56" class="net_5,6,7,8,9,10,11,12,13,14,15,16,17,18,19,20 width_16" style="stroke-width: 2"/><line x1="113" x2="170.33333333333334" y1="117" y2="117" class="net_4 width_1" style="stroke-width: 1"/><line x1="170.33333333333334" x2="170.33333333333334" y1="117" y2="64" class="net_4 width_1" style="stroke-width: 1"/><line x1="182.83333333333334" x2="285" y1="46" y2="46" class="net_69,70,71,72,73,74,75,76,77,78,79,80,81,82,83,84 width_16" style="stroke-width: 2"/><line x1="185" x2="260" y1="147" y2="147" class="net_101,102,103,104,105,106,107,108,109,110,111,112,113,114,115,116 width_16" style="stroke-width: 2"/><line x1="260" x2="260" y1="147" y2="66" class="net_101,102,103,104,105,106,107,108,109,110,111,112,113,114,115,116 width_16" style="stroke-width: 2"/><line x1="260" x2="285" y1="66" y2="66" class="net_101,102,103,104,105,106,107,108,109,110,111,112,113,114,115,116 width_16" style="stroke-width: 2"/><line x1="250" x2="298" y1="208" y2="208" class="net_3 width_1" style="stroke-width: 1"/><line x1="298" x2="298" y1="208" y2="74" class="net_3 width_1" style="stroke-width: 1"/><rect x="359.5" y="51" width="22" height="9" class="net_37,38,39,40,41,42,43,44,45,46,47,48,49,50,51,52 width_16 busLabel_16" style="fill: white; stroke: none"/><text x="358.5" y="59" class="net_37,38,39,40,41,42,43,44,45,46,47,48,49,50,51,52 width_16 busLabel_16">/16/</text><rect x="478.5" y="126" width="22" height="9" class="net_21,22,23,24,25,26,27,28,29,30,31,32,33,34,35,36 width_16 busLabel_16" style="fill: white; stroke: none"/><text x="477.5" y="134" class="net_21,22,23,24,25,26,27,28,29,30,31,32,33,34,35,36 width_16 busLabel_16">/16/</text><rect x="478.5" y="126" width="22" height="9" class="net_21,22,23,24,25,26,27,28,29,30,31,32,33,34,35,36 width_16 busLabel_16" style="fill: white; stroke: none"/><text x="477.5" y="134" class="net_21,22,23,24,25,26,27,28,29,30,31,32,33,34,35,36 width_16 busLabel_16">/16/</text><rect x="478.5" y="146" width="22" height="9" class="net_85,86,87,88,89,90,91,92,93,94,95,96,97,98,99,100 width_16 busLabel_16" style="fill: white; stroke: none"/><text x="477.5" y="154" class="net_85,86,87,88,89,90,91,92,93,94,95,96,97,98,99,100 width_16 busLabel_16">/16/</text><rect x="359.5" y="11" width="22" height="9" class="net_53,54,55,56,57,58,59,60,61,62,63,64,65,66,67,68 width_16 busLabel_16" style="fill: white; stroke: none"/><text x="358.5" y="19" class="net_53,54,55,56,57,58,59,60,61,62,63,64,65,66,67,68 width_16 busLabel_16">/16/</text><rect x="100" y="51" width="22" height="9" class="net_5,6,7,8,9,10,11,12,13,14,15,16,17,18,19,20 width_16 busLabel_16" style="fill: white; stroke: none"/><text x="99" y="59" class="net_5,6,7,8,9,10,11,12,13,14,15,16,17,18,19,20 width_16 busLabel_16">/16/</text><rect x="234" y="41" width="22" height="9" class="net_69,70,71,72,73,74,75,76,77,78,79,80,81,82,83,84 width_16 busLabel_16" style="fill: white; stroke: none"/><text x="233" y="49" class="net_69,70,71,72,73,74,75,76,77,78,79,80,81,82,83,84 width_16 busLabel_16">/16/</text><rect x="234" y="142" width="22" height="9" class="net_101,102,103,104,105,106,107,108,109,110,111,112,113,114,115,116 width_16 busLabel_16" style="fill: white; stroke: none"/><text x="233" y="150" class="net_101,102,103,104,105,106,107,108,109,110,111,112,113,114,115,116 width_16 busLabel_16">/16/</text></svg>