<?xml version="1.0" encoding="UTF-8" standalone="no"?>
<!DOCTYPE svg PUBLIC "-//W3C//DTD SVG 1.1//EN"
 "http://www.w3.org/Graphics/SVG/1.1/DTD/svg11.dtd">
<!-- Generated by graphviz version 2.40.1 (20161225.0304)
 -->
<!-- Title: state transitions Pages: 1 -->
<svg width="231pt" height="352pt"
 viewBox="0.00 0.00 231.00 352.00" xmlns="http://www.w3.org/2000/svg" xmlns:xlink="http://www.w3.org/1999/xlink">
<g id="graph0" class="graph" transform="scale(1 1) rotate(0) translate(4 348)">
<title>state transitions</title>
<polygon fill="#ffffff" stroke="transparent" points="-4,4 -4,-348 227,-348 227,4 -4,4"/>
<g id="clust1" class="cluster state regular">
<title>cluster_state</title>
<path fill="none" stroke="#000000" stroke-width="2" d="M20,-8C20,-8 203,-8 203,-8 209,-8 215,-14 215,-20 215,-20 215,-324 215,-324 215,-330 209,-336 203,-336 203,-336 20,-336 20,-336 14,-336 8,-330 8,-324 8,-324 8,-20 8,-20 8,-14 14,-8 20,-8"/>
<text text-anchor="start" x="98.4944" y="-317.2" font-family="Helvetica,sans-Serif" font-size="12.00" fill="#000000">state</text>
</g>
<!-- state -->
<!-- S1 -->
<g id="node2" class="node state regular">
<title>S1</title>
<polygon fill="#ffffff" fill-opacity="0.003922" stroke="transparent" stroke-width="2" points="87,-298 31,-298 31,-262 87,-262 87,-298"/>
<text text-anchor="start" x="51.6632" y="-276.2" font-family="Helvetica,sans-Serif" font-size="12.00" fill="#000000">S1</text>
<path fill="none" stroke="#000000" stroke-width="2" d="M43.3333,-263C43.3333,-263 74.6667,-263 74.6667,-263 80.3333,-263 86,-268.6667 86,-274.3333 86,-274.3333 86,-285.6667 86,-285.6667 86,-291.3333 80.3333,-297 74.6667,-297 74.6667,-297 43.3333,-297 43.3333,-297 37.6667,-297 32,-291.3333 32,-285.6667 32,-285.6667 32,-274.3333 32,-274.3333 32,-268.6667 37.6667,-263 43.3333,-263"/>
</g>
<!-- S1&#45;&gt;S1 -->
<g id="edge1" class="edge transition">
<title>S1&#45;&gt;S1</title>
<path fill="none" stroke="#000000" d="M87.0183,-284.8247C98.888,-285.1883 109,-283.5801 109,-280 109,-277.5387 104.2205,-276.0094 97.3762,-275.4121"/>
<polygon fill="#000000" stroke="#000000" points="97.0957,-271.9049 87.0183,-275.1753 96.9356,-278.903 97.0957,-271.9049"/>
<text text-anchor="start" x="109" y="-277" font-family="Helvetica,sans-Serif" font-size="10.00" fill="#000000">i_x=&#39;0&#39; &#160;&#160;</text>
</g>
<!-- S2 -->
<g id="node3" class="node state regular">
<title>S2</title>
<polygon fill="#ffffff" fill-opacity="0.003922" stroke="transparent" stroke-width="2" points="72,-216 16,-216 16,-180 72,-180 72,-216"/>
<text text-anchor="start" x="36.6632" y="-194.2" font-family="Helvetica,sans-Serif" font-size="12.00" fill="#000000">S2</text>
<path fill="none" stroke="#000000" stroke-width="2" d="M28.3333,-181C28.3333,-181 59.6667,-181 59.6667,-181 65.3333,-181 71,-186.6667 71,-192.3333 71,-192.3333 71,-203.6667 71,-203.6667 71,-209.3333 65.3333,-215 59.6667,-215 59.6667,-215 28.3333,-215 28.3333,-215 22.6667,-215 17,-209.3333 17,-203.6667 17,-203.6667 17,-192.3333 17,-192.3333 17,-186.6667 22.6667,-181 28.3333,-181"/>
</g>
<!-- S1&#45;&gt;S2 -->
<g id="edge2" class="edge transition">
<title>S1&#45;&gt;S2</title>
<path fill="none" stroke="#000000" d="M55.671,-261.8015C53.7484,-251.2915 51.2897,-237.8503 49.1252,-226.0177"/>
<polygon fill="#000000" stroke="#000000" points="52.562,-225.3545 47.3197,-216.1476 45.6763,-226.6142 52.562,-225.3545"/>
<text text-anchor="start" x="52" y="-236" font-family="Helvetica,sans-Serif" font-size="10.00" fill="#000000">i_x=&#39;1&#39; &#160;&#160;</text>
</g>
<!-- S2&#45;&gt;S2 -->
<g id="edge3" class="edge transition">
<title>S2&#45;&gt;S2</title>
<path fill="none" stroke="#000000" d="M72.0183,-202.8247C83.888,-203.1883 94,-201.5801 94,-198 94,-195.5387 89.2205,-194.0094 82.3762,-193.4121"/>
<polygon fill="#000000" stroke="#000000" points="82.0957,-189.9049 72.0183,-193.1753 81.9356,-196.903 82.0957,-189.9049"/>
<text text-anchor="start" x="94" y="-195" font-family="Helvetica,sans-Serif" font-size="10.00" fill="#000000">i_x=&#39;1&#39; &#160;&#160;</text>
</g>
<!-- S3 -->
<g id="node4" class="node state regular">
<title>S3</title>
<polygon fill="#ffffff" fill-opacity="0.003922" stroke="transparent" stroke-width="2" points="179,-134 123,-134 123,-98 179,-98 179,-134"/>
<text text-anchor="start" x="143.6632" y="-112.2" font-family="Helvetica,sans-Serif" font-size="12.00" fill="#000000">S3</text>
<path fill="none" stroke="#000000" stroke-width="2" d="M135.3333,-99C135.3333,-99 166.6667,-99 166.6667,-99 172.3333,-99 178,-104.6667 178,-110.3333 178,-110.3333 178,-121.6667 178,-121.6667 178,-127.3333 172.3333,-133 166.6667,-133 166.6667,-133 135.3333,-133 135.3333,-133 129.6667,-133 124,-127.3333 124,-121.6667 124,-121.6667 124,-110.3333 124,-110.3333 124,-104.6667 129.6667,-99 135.3333,-99"/>
</g>
<!-- S2&#45;&gt;S3 -->
<g id="edge4" class="edge transition">
<title>S2&#45;&gt;S3</title>
<path fill="none" stroke="#000000" d="M67.7468,-179.8015C82.8464,-168.2298 102.5825,-153.105 119.0488,-140.486"/>
<polygon fill="#000000" stroke="#000000" points="121.5113,-143.0084 127.3196,-134.1476 117.2534,-137.4523 121.5113,-143.0084"/>
<text text-anchor="start" x="104" y="-154" font-family="Helvetica,sans-Serif" font-size="10.00" fill="#000000">i_x=&#39;0&#39; &#160;&#160;</text>
</g>
<!-- S3&#45;&gt;S1 -->
<g id="edge6" class="edge transition">
<title>S3&#45;&gt;S1</title>
<path fill="none" stroke="#000000" d="M163.5675,-134.3796C167.1008,-141.1825 170,-149.1548 170,-157 170,-239 170,-239 170,-239 170,-254.942 129.2015,-266.6237 97.0737,-273.3512"/>
<polygon fill="#000000" stroke="#000000" points="96.1311,-269.9702 87.01,-275.3605 97.5017,-276.8347 96.1311,-269.9702"/>
<text text-anchor="start" x="170" y="-195" font-family="Helvetica,sans-Serif" font-size="10.00" fill="#000000">i_x=&#39;0&#39; &#160;&#160;</text>
</g>
<!-- S4 -->
<g id="node5" class="node state regular">
<title>S4</title>
<polygon fill="#ffffff" fill-opacity="0.003922" stroke="transparent" stroke-width="2" points="117,-52 61,-52 61,-16 117,-16 117,-52"/>
<text text-anchor="start" x="81.6632" y="-30.2" font-family="Helvetica,sans-Serif" font-size="12.00" fill="#000000">S4</text>
<path fill="none" stroke="#000000" stroke-width="2" d="M73.3333,-17C73.3333,-17 104.6667,-17 104.6667,-17 110.3333,-17 116,-22.6667 116,-28.3333 116,-28.3333 116,-39.6667 116,-39.6667 116,-45.3333 110.3333,-51 104.6667,-51 104.6667,-51 73.3333,-51 73.3333,-51 67.6667,-51 62,-45.3333 62,-39.6667 62,-39.6667 62,-28.3333 62,-28.3333 62,-22.6667 67.6667,-17 73.3333,-17"/>
</g>
<!-- S3&#45;&gt;S4 -->
<g id="edge5" class="edge transition">
<title>S3&#45;&gt;S4</title>
<path fill="none" stroke="#000000" d="M145.6022,-97.9858C142.2986,-88.7641 137.4538,-77.6829 131,-69 128.452,-65.572 125.5021,-62.2677 122.3702,-59.1495"/>
<polygon fill="#000000" stroke="#000000" points="124.5717,-56.4196 114.8358,-52.2409 119.8409,-61.579 124.5717,-56.4196"/>
<text text-anchor="start" x="138" y="-72" font-family="Helvetica,sans-Serif" font-size="10.00" fill="#000000">i_x=&#39;1&#39; &#160;&#160;</text>
</g>
<!-- S4&#45;&gt;S2 -->
<g id="edge8" class="edge transition">
<title>S4&#45;&gt;S2</title>
<path fill="none" stroke="#000000" d="M60.7563,-48.1943C51.7151,-54.8421 44,-63.797 44,-75 44,-157 44,-157 44,-157 44,-161.0484 44,-165.3216 44,-169.52"/>
<polygon fill="#000000" stroke="#000000" points="40.5001,-169.6312 44,-179.6312 47.5001,-169.6313 40.5001,-169.6312"/>
<text text-anchor="start" x="44" y="-113" font-family="Helvetica,sans-Serif" font-size="10.00" fill="#000000">i_x=&#39;1&#39; &#160;&#160;</text>
</g>
<!-- S4&#45;&gt;S3 -->
<g id="edge7" class="edge transition">
<title>S4&#45;&gt;S3</title>
<path fill="none" stroke="#000000" d="M84.9079,-52.0868C83.7945,-61.3284 84.0456,-72.4055 89.069,-81 94.6418,-90.5346 103.8778,-97.6787 113.5379,-102.939"/>
<polygon fill="#000000" stroke="#000000" points="112.2967,-106.2262 122.8239,-107.4217 115.3399,-99.9223 112.2967,-106.2262"/>
<text text-anchor="start" x="89" y="-72" font-family="Helvetica,sans-Serif" font-size="10.00" fill="#000000">i_x=&#39;0&#39; &#160;&#160;</text>
</g>
</g>
</svg>
