<svg xmlns="http://www.w3.org/2000/svg" xmlns:xlink="http://www.w3.org/1999/xlink" xmlns:s="https://github.com/nturley/netlistsvg" width="252" height="249"><style>svg {
  stroke:#000;
  fill:none;
}
text {
  fill:#000;
  stroke:none;
  font-size:10px;
  font-weight: bold;
  font-family: "Courier New", monospace;
}
line {
    stroke-linecap: round;
}
.nodelabel {
  text-anchor: middle;
}
.inputPortLabel {
  text-anchor: end;
}
.splitjoinBody {
  fill:#000;
}</style><g s:type="and" transform="translate(77,27)" s:width="30" s:height="25" id="cell_\1"><s:alias val="$and"/><s:alias val="$logic_and"/><s:alias val="$_AND_"/><path d="M0,0 L0,25 L15,25 A15 12.5 0 0 0 15,0 Z" fill="#eebaff" class="cell_\1"/><g s:x="0" s:y="5" s:pid="A"/><g s:x="0" s:y="20" s:pid="B"/><g s:x="30" s:y="12.5" s:pid="Y"/></g><g s:type="and" transform="translate(77,157)" s:width="30" s:height="25" id="cell_\2"><s:alias val="$and"/><s:alias val="$logic_and"/><s:alias val="$_AND_"/><path d="M0,0 L0,25 L15,25 A15 12.5 0 0 0 15,0 Z" fill="#eebaff" class="cell_\2"/><g s:x="0" s:y="5" s:pid="A"/><g s:x="0" s:y="20" s:pid="B"/><g s:x="30" s:y="12.5" s:pid="Y"/></g><g s:type="reduce_xor" transform="translate(142,34.5)" s:width="33" s:height="25" id="cell_\3"><s:alias val="$xor"/><s:alias val="$reduce_xor"/><s:alias val="$_XOR_"/><path d="M3,0 A30 25 0 0 1 3,25 A30 25 0 0 0 33,12.5 A30 25 0 0 0 3,0" fill="#eebaff" class="cell_\3"/><path d="M0,0 A30 25 0 0 1 0,25" class="cell_\3"/><g s:x="2" s:y="5" s:pid="A"/><g s:x="2" s:y="20" s:pid="B"/><g s:x="33" s:y="12.5" s:pid="Y"/></g><g s:type="inputExt" transform="translate(12,22)" s:width="30" s:height="20" id="cell_i_A"><text x="15" y="-4" class="nodelabel cell_i_A" s:attribute="ref">i_A</text><s:alias val="$_inputExt_"/><path d="M0,0 L0,20 L15,20 L30,10 L15,0 Z" fill="#8bcaff" class="cell_i_A"/><g s:x="30" s:y="10" s:pid="Y"/></g><g s:type="inputExt" transform="translate(12,87)" s:width="30" s:height="20" id="cell_i_B"><text x="15" y="-4" class="nodelabel cell_i_B" s:attribute="ref">i_B</text><s:alias val="$_inputExt_"/><path d="M0,0 L0,20 L15,20 L30,10 L15,0 Z" fill="#8bcaff" class="cell_i_B"/><g s:x="30" s:y="10" s:pid="Y"/></g><g s:type="inputExt" transform="translate(12,152)" s:width="30" s:height="20" id="cell_i_C"><text x="15" y="-4" class="nodelabel cell_i_C" s:attribute="ref">i_C</text><s:alias val="$_inputExt_"/><path d="M0,0 L0,20 L15,20 L30,10 L15,0 Z" fill="#8bcaff" class="cell_i_C"/><g s:x="30" s:y="10" s:pid="Y"/></g><g s:type="inputExt" transform="translate(12,217)" s:width="30" s:height="20" id="cell_i_D"><text x="15" y="-4" class="nodelabel cell_i_D" s:attribute="ref">i_D</text><s:alias val="$_inputExt_"/><path d="M0,0 L0,20 L15,20 L30,10 L15,0 Z" fill="#8bcaff" class="cell_i_D"/><g s:x="30" s:y="10" s:pid="Y"/></g><g s:type="outputExt" transform="translate(210,37)" s:width="30" s:height="20" id="cell_o_Y"><text x="15" y="-4" class="nodelabel cell_o_Y" s:attribute="ref">o_Y</text><s:alias val="$_outputExt_"/><path d="M30,0 L30,20 L15,20 L0,10 L15,0 Z" fill="#169300" class="cell_o_Y"/><g s:x="0" s:y="10" s:pid="A"/></g><line x1="42" x2="77" y1="32" y2="32" class="net_2 width_1" style="stroke-width: 1"/><line x1="42" x2="52" y1="97" y2="97" class="net_3 width_1" style="stroke-width: 1"/><line x1="52" x2="52" y1="97" y2="47" class="net_3 width_1" style="stroke-width: 1"/><line x1="52" x2="77" y1="47" y2="47" class="net_3 width_1" style="stroke-width: 1"/><line x1="42" x2="77" y1="162" y2="162" class="net_4 width_1" style="stroke-width: 1"/><line x1="42" x2="52" y1="227" y2="227" class="net_5 width_1" style="stroke-width: 1"/><line x1="52" x2="52" y1="227" y2="177" class="net_5 width_1" style="stroke-width: 1"/><line x1="52" x2="77" y1="177" y2="177" class="net_5 width_1" style="stroke-width: 1"/><line x1="107" x2="144" y1="39.5" y2="39.5" class="net_7 width_1" style="stroke-width: 1"/><line x1="107" x2="117" y1="169.5" y2="169.5" class="net_8 width_1" style="stroke-width: 1"/><line x1="117" x2="117" y1="169.5" y2="54.5" class="net_8 width_1" style="stroke-width: 1"/><line x1="117" x2="144" y1="54.5" y2="54.5" class="net_8 width_1" style="stroke-width: 1"/><line x1="175" x2="210" y1="47" y2="47" class="net_6 width_1" style="stroke-width: 1"/></svg>