<svg xmlns="http://www.w3.org/2000/svg" xmlns:xlink="http://www.w3.org/1999/xlink" xmlns:s="https://github.com/nturley/netlistsvg" width="254" height="129"><style>svg {
  stroke:#000;
  fill:none;
}
text {
  fill:#000;
  stroke:none;
  font-size:10px;
  font-weight: bold;
  font-family: "Courier New", monospace;
}
line {
    stroke-linecap: round;
}
.nodelabel {
  text-anchor: middle;
}
.inputPortLabel {
  text-anchor: end;
}
.splitjoinBody {
  fill:#000;
}</style><g s:type="reduce_xor" transform="translate(77,27)" s:width="33" s:height="25" id="cell_\5"><s:alias val="$xor"/><s:alias val="$reduce_xor"/><s:alias val="$_XOR_"/><path d="M3,0 A30 25 0 0 1 3,25 A30 25 0 0 0 33,12.5 A30 25 0 0 0 3,0" fill="#eebaff" class="cell_\5"/><path d="M0,0 A30 25 0 0 1 0,25" class="cell_\5"/><g s:x="2" s:y="5" s:pid="A"/><g s:x="2" s:y="20" s:pid="B"/><g s:x="33" s:y="12.5" s:pid="Y"/></g><g s:type="dff" transform="translate(146,29.5)" s:width="30" s:height="40" id="cell_\6"><s:alias val="$dff"/><s:alias val="$_DFF_"/><s:alias val="$_DFF_P_"/><s:alias val="dff-bus"/><s:alias val="$dff-bus"/><s:alias val="$_DFF_-bus"/><s:alias val="$_DFF_P_-bus"/><rect width="30" height="40" x="0" y="0" fill="#ffef8b" class="cell_\6"/><path d="M0,35 L5,30 L0,25" class="cell_\6"/><g s:x="31" s:y="10" s:pid="Q"/><g s:x="-1" s:y="30" s:pid="CLK"/><g s:x="-1" s:y="30" s:pid="C"/><g s:x="-1" s:y="10" s:pid="D"/></g><g s:type="inputExt" transform="translate(80,97)" s:width="30" s:height="20" id="cell_clk"><text x="15" y="-4" class="nodelabel cell_clk" s:attribute="ref">clk</text><s:alias val="$_inputExt_"/><path d="M0,0 L0,20 L15,20 L30,10 L15,0 Z" fill="#8bcaff" class="cell_clk"/><g s:x="30" s:y="10" s:pid="Y"/></g><g s:type="inputExt" transform="translate(12,22)" s:width="30" s:height="20" id="cell_A"><text x="15" y="-4" class="nodelabel cell_A" s:attribute="ref">A</text><s:alias val="$_inputExt_"/><path d="M0,0 L0,20 L15,20 L30,10 L15,0 Z" fill="#8bcaff" class="cell_A"/><g s:x="30" s:y="10" s:pid="Y"/></g><g s:type="inputExt" transform="translate(12,87)" s:width="30" s:height="20" id="cell_B"><text x="15" y="-4" class="nodelabel cell_B" s:attribute="ref">B</text><s:alias val="$_inputExt_"/><path d="M0,0 L0,20 L15,20 L30,10 L15,0 Z" fill="#8bcaff" class="cell_B"/><g s:x="30" s:y="10" s:pid="Y"/></g><g s:type="outputExt" transform="translate(212,29.5)" s:width="30" s:height="20" id="cell_Q"><text x="15" y="-4" class="nodelabel cell_Q" s:attribute="ref">Q</text><s:alias val="$_outputExt_"/><path d="M30,0 L30,20 L15,20 L0,10 L15,0 Z" fill="#169300" class="cell_Q"/><g s:x="0" s:y="10" s:pid="A"/></g><line x1="42" x2="79" y1="32" y2="32" class="net_3 width_1" style="stroke-width: 1"/><line x1="42" x2="52" y1="97" y2="97" class="net_4 width_1" style="stroke-width: 1"/><line x1="52" x2="52" y1="97" y2="47" class="net_4 width_1" style="stroke-width: 1"/><line x1="52" x2="79" y1="47" y2="47" class="net_4 width_1" style="stroke-width: 1"/><line x1="110" x2="120" y1="107" y2="107" class="net_2 width_1" style="stroke-width: 1"/><line x1="120" x2="120" y1="107" y2="59.5" class="net_2 width_1" style="stroke-width: 1"/><line x1="120" x2="145" y1="59.5" y2="59.5" class="net_2 width_1" style="stroke-width: 1"/><line x1="110" x2="145" y1="39.5" y2="39.5" class="net_6 width_1" style="stroke-width: 1"/><line x1="177" x2="212" y1="39.5" y2="39.5" class="net_5 width_1" style="stroke-width: 1"/></svg>